<svg xmlns="http://www.w3.org/2000/svg" width="24" height="24" viewBox="0 0 24 24"><path d="M11.99,0A12.087,12.087,0,0,0,.148,10.334,12.334,12.334,0,0,0,8.2,23.978c.6.114.792-.268.792-.592V21.1c-3.335.742-4.03-1.452-4.03-1.452a3.25,3.25,0,0,0-1.332-1.8c-1.088-.764.083-.747.083-.747a2.516,2.516,0,0,1,1.838,1.268,2.565,2.565,0,0,0,1.536,1.26,2.5,2.5,0,0,0,1.953-.235,2.639,2.639,0,0,1,.761-1.64c-2.663-.316-5.463-1.371-5.463-6.084a4.832,4.832,0,0,1,1.235-3.3A4.532,4.532,0,0,1,5.7,5.1s1-.33,3.3,1.261a11.086,11.086,0,0,1,6,0c2.289-1.591,3.3-1.261,3.3-1.261a4.528,4.528,0,0,1,.118,3.256,4.819,4.819,0,0,1,1.234,3.3c0,4.726-2.8,5.766-5.475,6.071a2.985,2.985,0,0,1,.816,2.278v3.376c0,.327.192.712.8.591A12.334,12.334,0,0,0,23.836,10.33,12.087,12.087,0,0,0,11.99,0Z" transform="translate(0.008 0)"/></svg>